<?xml version="1.0" encoding="iso-8859-1"?>
<!-- Generator: Adobe Illustrator 19.0.0, SVG Export Plug-In . SVG Version: 6.00 Build 0)  -->
<svg version="1.1" id="Layer_1" xmlns="http://www.w3.org/2000/svg" xmlns:xlink="http://www.w3.org/1999/xlink" x="0px" y="0px"
	 viewBox="0 0 512 512" style="enable-background:new 0 0 512 512;" xml:space="preserve">
<path style="fill:#707487;" d="M423.724,512H88.276c-4.875,0-8.828-3.953-8.828-8.828V17.655c0-4.875,3.953-8.828,8.828-8.828
	h335.448c4.875,0,8.828,3.953,8.828,8.828v485.517C432.552,508.047,428.599,512,423.724,512z"/>
<path style="fill:#5B5D6E;" d="M123.586,494.345L123.586,494.345c-4.875,0-8.828-3.953-8.828-8.828V35.31
	c0-4.875,3.953-8.828,8.828-8.828l0,0c4.875,0,8.828,3.953,8.828,8.828v450.207C132.414,490.392,128.461,494.345,123.586,494.345z"
	/>
<path style="fill:#FFD782;" d="M196.172,101.356l-19.62-13.08l-19.62,13.08c-2.933,1.955-6.862-0.147-6.862-3.672V8.828
	c0-4.875,3.953-8.828,8.828-8.828h35.31c4.875,0,8.828,3.953,8.828,8.828v88.856C203.034,101.209,199.105,103.311,196.172,101.356z"
	/>
<g>
	<path style="fill:#FFC36E;" d="M291.31,344.276h-17.655V158.897c0-4.875,3.953-8.828,8.828-8.828l0,0
		c4.875,0,8.828,3.953,8.828,8.828V344.276z"/>
	<path style="fill:#FFC36E;" d="M326.621,370.759h-88.276c-4.875,0-8.828-3.953-8.828-8.828l0,0c0-4.875,3.953-8.828,8.828-8.828
		h88.276c4.875,0,8.828,3.953,8.828,8.828l0,0C335.448,366.806,331.496,370.759,326.621,370.759z"/>
</g>
<polygon style="fill:#FFD782;" points="273.655,335.448 247.172,353.103 317.793,353.103 291.31,335.448 "/>
<path style="fill:#F5B464;" d="M362.303,185.361c4.701-0.196,8.456-4.058,8.456-8.809c0-4.875-3.953-8.828-8.828-8.828H203.034
	c-4.875,0-8.828,3.953-8.828,8.828c0,4.749,3.754,8.612,8.456,8.809l-32.6,105.95h18.471l23.358-75.914l23.357,75.914h18.471
	l-32.595-105.931h122.718L311.246,291.31h18.471l23.358-75.914l23.358,75.914h18.471L362.303,185.361z"/>
<g>
	<path style="fill:#FFD782;" d="M173.409,282.483c-4.107,0-6.932,4.329-5.132,8.02c7.878,16.152,24.431,27.29,43.614,27.29
		s35.735-11.138,43.613-27.29c1.8-3.691-1.025-8.02-5.132-8.02H173.409z"/>
	<path style="fill:#FFD782;" d="M314.594,282.483c-4.107,0-6.932,4.329-5.132,8.02c7.878,16.153,24.43,27.29,43.613,27.29
		c19.182,0,35.735-11.138,43.613-27.29c1.8-3.691-1.025-8.02-5.132-8.02H314.594z"/>
</g>
<g>
</g>
<g>
</g>
<g>
</g>
<g>
</g>
<g>
</g>
<g>
</g>
<g>
</g>
<g>
</g>
<g>
</g>
<g>
</g>
<g>
</g>
<g>
</g>
<g>
</g>
<g>
</g>
<g>
</g>
</svg>
