<?xml version="1.0" encoding="iso-8859-1"?>
<!-- Generator: Adobe Illustrator 18.0.0, SVG Export Plug-In . SVG Version: 6.00 Build 0)  -->
<!DOCTYPE svg PUBLIC "-//W3C//DTD SVG 1.1//EN" "http://www.w3.org/Graphics/SVG/1.1/DTD/svg11.dtd">
<svg version="1.1" id="Capa_1" xmlns="http://www.w3.org/2000/svg" xmlns:xlink="http://www.w3.org/1999/xlink" x="0px" y="0px"
	 viewBox="0 0 487.663 487.663" style="enable-background:new 0 0 487.663 487.663;" xml:space="preserve">
<g id="XMLID_112_">
	<path id="XMLID_113_" d="M485.403,406.853l-39.131-85.618c0,0,16.452-71.837,16.468-72.9c0.096-6.141-2.239-12.063-6.514-16.467
		l-77.321-79.86c2.263,3.594,4.055,7.553,5.003,11.949c2.208,10.245-0.031,20.385-5.394,28.48l11.528,47.997
		c3.276,13.66-4.389,27.799-17.716,32.423c-11.179,3.835-3.927,1.346-46.351,15.906c-7.658,4.154-12.638,11.989-13.027,20.726
		L308.178,416.1c-0.617,13.75,10.035,25.391,23.784,26.007c0.372,0.016,0.754,0.023,1.128,0.023
		c13.253,0,24.278-10.44,24.877-23.808l4.123-92.205l36.25-18.722l-2.539,10.537c-1.307,5.418-0.754,11.121,1.565,16.191
		l42.708,93.447c5.703,12.476,20.442,18.048,33.022,12.305C485.614,434.158,491.123,419.369,485.403,406.853z"/>
	<path id="XMLID_114_" d="M332.148,213.35l-0.113,11.858l-77.134,26.469c-10.845,3.715-16.621,15.527-12.898,26.38
		c2.954,8.613,11.008,14.032,19.64,14.032c2.232,0,4.511-0.365,6.739-1.136l91.022-31.228c8.323-2.856,13.945-10.644,14.026-19.444
		l0.398-42.117c-4.924,4.956-11.244,8.622-18.577,10.206L332.148,213.35z"/>
	<path id="XMLID_115_" d="M212.299,117.161c16.977,9.694,38.124,4.834,49.546-10.423c1.331,7.155,4.671,14.017,10.116,19.646
		c14.73,15.193,39.008,15.583,54.21,0.852c15.217-14.731,15.597-38.984,0.876-54.203c-14.722-15.208-38.993-15.607-54.203-0.876
		c-1.524,1.484-2.799,3.123-4.032,4.777c-1.986-10.716-8.338-20.546-18.535-26.371c-18.396-10.488-41.808-4.08-52.288,14.31
		C187.51,83.271,193.901,106.673,212.299,117.161z"/>
	<path id="XMLID_116_" d="M260.011,312.068c-0.04-0.023-66.694-41.474-66.735-41.499l23.532-41.272l9.702,14.302
		c1.42,2.091,3.333,3.698,5.354,5.126c4.331-5.72,10.35-10.262,17.651-12.768l37.533-12.882l-1.598,0.35
		c-3.854,0.827-7.69,0.34-11.032-1.16l-42.66-19.176l-33.2-14.927l79.51,17.895c3.027,0.673,6.077,0.656,8.94,0.032l64.748-13.96
		c11.211-2.409,18.332-13.456,15.915-24.675c-2.409-11.21-13.409-18.349-24.675-15.916l-60.272,12.995l-75.049-16.896l24.133,0.496
		c-1.477-1.242-3.033-2.41-4.77-3.399l-12.248-6.992c-7.603-4.332-16.621-5.476-25.066-3.164
		c-8.444,2.312-15.624,7.884-19.964,15.485l-99.302,182.65L6.804,400.105c-9.449,10.001-9.004,25.771,1.007,35.221
		c9.993,9.458,25.778,9.003,35.22-1.007l66.24-70.126c1.72-1.808,3.148-3.877,4.251-6.115l29.518-60.083
		c0.065,0.04,0.115,0.097,0.18,0.138l78.941,49.084l1.136,70.401c0.226,13.62,11.34,24.513,24.911,24.513c0.138,0,0.276,0,0.414,0
		c13.756-0.226,24.733-11.56,24.513-25.325l-1.364-83.979C271.635,324.358,267.206,316.547,260.011,312.068z"/>
</g>
<g>
</g>
<g>
</g>
<g>
</g>
<g>
</g>
<g>
</g>
<g>
</g>
<g>
</g>
<g>
</g>
<g>
</g>
<g>
</g>
<g>
</g>
<g>
</g>
<g>
</g>
<g>
</g>
<g>
</g>
</svg>
